<svg width="72" height="65" viewBox="0 0 72 65" fill="none" xmlns="http://www.w3.org/2000/svg">
<path d="M0.162109 0L71.9875 5.31434L63.587 57.1248L46.7182 60.6423L46.688 53.6027L40.2593 57.2314L44.3133 64.9998L6.69463 61.6959L4.73139 37.6305L5.57487 30.8202L10.0657 20.9815L3.98977 24.7834L2.27281 19.9547L0.162109 0Z" fill="white"/>
<path d="M28.2683 19H25.9442L24.9189 13.429L22.9366 19H20.9543L18.989 13.4461L17.9466 19H15.6396L17.4169 9.60109H19.8948L21.9625 15.3771L24.0303 9.60109H26.5082L28.2683 19ZM36.1001 15.4968H38.4413C38.1508 17.6842 36.2881 19.1709 33.8273 19.1709C30.9393 19.1709 28.9057 17.1202 28.9057 14.3005C28.9057 11.4809 30.9393 9.4302 33.8273 9.4302C36.4248 9.4302 38.3046 11.1733 38.3559 13.6853C38.3559 14.0784 38.3559 14.5398 38.3217 14.9328H31.2811C31.4519 16.2145 32.4602 17.0348 33.8615 17.0348C35.0064 17.0348 35.8096 16.4538 36.1001 15.4968ZM33.8615 11.5492C32.7165 11.5492 31.8279 12.0961 31.4519 12.9847H36.0147C35.7754 12.1132 34.9894 11.5492 33.8615 11.5492ZM46.7156 9.60109V11.891H42.3579V19H39.9313V9.60109H46.7156ZM51.7394 9.4302C54.1661 9.4302 55.5503 10.729 55.5503 12.5575V19H53.1578V17.9918C52.6451 18.7437 51.6027 19.1709 50.2869 19.1709C48.2533 19.1709 46.9716 18.0943 46.9716 16.4708C46.9716 14.967 47.8944 14.1297 50.0818 13.5315L52.4572 12.9163C52.9186 12.7796 53.0553 12.66 53.0553 12.3695C53.0553 11.9252 52.5768 11.5151 51.654 11.5151C50.4919 11.5151 49.8426 12.0619 49.7229 13.1043H47.3647C47.4501 10.7973 49.0906 9.4302 51.7394 9.4302ZM50.6799 17.1886C52.235 17.1886 53.1578 16.3854 53.1578 14.8987V14.7107C52.9698 14.779 52.7819 14.8303 52.5768 14.8816L50.4919 15.4455C49.7059 15.6506 49.3641 15.8898 49.3641 16.3512C49.3641 16.881 49.8767 17.1886 50.6799 17.1886Z" fill="#8654CC"/>
<path d="M42.1266 44C42.1266 37.098 42.1767 33.6471 42.277 33.6471V33.5882C42.277 33.5098 42.2168 33.4706 42.0965 33.4706L42.1266 33.4118C42.1266 33.3529 42.1567 33.3235 42.2168 33.3235L42.2469 33.2059H42.1266V33.1765C42.1266 33.1765 42.1767 33.1275 42.277 33.0294L42.2168 32.8529C42.2569 32.8529 42.277 32.8431 42.277 32.8235L42.3372 32.8824H42.3973C42.4374 32.8824 42.4575 32.8627 42.4575 32.8235C42.4174 32.8235 42.3472 32.7843 42.2469 32.7059C42.2469 32.6667 42.2569 32.5784 42.277 32.4412C42.277 32.4216 42.2168 32.4118 42.0965 32.4118V32.2647L42.277 32.2941V32.2059C42.2369 31.9314 42.1767 31.7549 42.0965 31.6765C42.0965 31.6176 42.1567 31.5784 42.277 31.5588C42.277 31.4804 42.2469 31.4118 42.1867 31.3529C42.2068 31.3529 42.2168 31.3333 42.2168 31.2941L42.2469 31.2353L42.1567 31.1471V31.0882C42.2369 31.0882 42.277 31.0588 42.277 31V30.8824C42.277 30.8431 42.2469 30.8137 42.1867 30.7941L42.277 27.6765V27.5294C42.1767 27.5098 42.1266 27.4804 42.1266 27.4412V27.3824L42.2469 27.2941C42.267 27.2353 42.2268 27.1961 42.1266 27.1765V26.9412L42.0664 26.7059C42.1466 26.7059 42.2068 26.4804 42.2469 26.0294C42.267 25.951 42.3071 25.902 42.3672 25.8824L42.3071 25.7353V25.4412L42.3672 25.2353L42.3071 25.2647C42.267 24.9706 42.2168 24.7843 42.1567 24.7059C42.1767 24.7255 42.2168 24.7059 42.277 24.6471L42.1867 24.5L42.2469 24.4412L42.1867 24.3824L42.277 24.1765C42.277 24.1176 42.2268 24.0098 42.1266 23.8529L42.1867 23.7647L42.1567 23.6471C42.1567 23.5882 42.1968 23.5686 42.277 23.5882V23.5588C42.277 23.4804 42.2168 23.3725 42.0965 23.2353C42.0965 23.1373 42.1366 23.0196 42.2168 22.8824L42.1567 22.7059V22.6765C42.1567 22.5588 42.2469 22.4314 42.4274 22.2941H42.6681L42.638 22.2647L53.8289 22L54.0395 43.5L42.1266 44ZM49.1359 42.6176H52.9264L49.8579 32.8235L52.776 25.5882L49.1359 25.5588L49.1059 25.5882L46.8195 31.4412V25.5294L43.2396 25.5V42.6176H46.8195V34.3529L49.1359 42.6176Z" fill="#8654CC"/>
<path d="M37.7626 33.8291V36.7906C37.7626 38.3262 37.7728 39.4729 37.7933 40.2308C37.7933 41.0684 37.7626 41.6268 37.7013 41.906C37.6399 42.1652 37.3945 42.3746 36.965 42.5342C36.5356 42.6738 36.1675 42.614 35.8607 42.3547C35.5744 42.0954 35.4006 41.8063 35.3392 41.4872C35.2779 41.1681 35.2268 40.5897 35.1859 39.7521V34.0684C35.1859 33.6296 35.1961 33.1311 35.2165 32.5726C35.237 32.0142 35.4619 31.5954 35.8914 31.3162C36.3209 31.0171 36.7094 30.9872 37.0571 31.2265C37.4047 31.4658 37.6092 31.8248 37.6706 32.3034C37.7319 32.7821 37.7626 33.2906 37.7626 33.8291ZM43.5296 25.0043V46.9017L30.5232 44.8974C30.5437 44.8177 30.5539 44.7379 30.5539 44.6581C30.5743 44.6581 30.6255 44.6681 30.7073 44.688C30.7891 44.688 30.83 44.6681 30.83 44.6282V44.5684C30.7073 44.5684 30.605 44.5385 30.5232 44.4786L30.3392 44.5385C30.3392 44.4387 30.3596 44.3689 30.4005 44.3291C30.3801 44.1097 30.3187 44 30.2165 44C30.196 43.8803 30.1551 43.8205 30.0938 43.8205V43.7906C30.196 43.7308 30.2574 43.7009 30.2778 43.7009V43.5214C30.4414 43.5214 30.5232 43.5014 30.5232 43.4615V43.4316C30.3392 43.3519 30.2165 43.312 30.1551 43.312V43.2521C30.1551 43.2122 30.288 43.1424 30.5539 43.0427L30.4619 42.4744C30.5437 42.4744 30.5846 42.4544 30.5846 42.4145V42.2051C30.5846 42.1453 30.5437 42.0655 30.4619 41.9658V41.906C30.4619 41.8661 30.4925 41.8462 30.5539 41.8462L30.5232 41.5769V41.547L30.5539 41.4573C30.4516 41.4174 30.4005 41.3875 30.4005 41.3675V41.3376C30.4619 41.3376 30.4823 39.094 30.4619 34.6068C30.4414 30.1197 30.4005 27.8462 30.3392 27.7863C30.3801 27.7863 30.4107 27.7564 30.4312 27.6966L30.4005 27.5171L30.4312 27.4573L30.4005 27.3675L30.4312 27.1581C30.4312 27.0783 30.3903 26.9687 30.3085 26.8291L30.4005 26.6795L30.3392 26.5897C30.3392 26.51 30.3801 26.4701 30.4619 26.4701C30.4619 26.3704 30.4005 26.2507 30.2778 26.1111C30.2778 26.0114 30.3187 25.8718 30.4005 25.6923L30.3392 25.4829V25.453C30.3392 25.3134 30.421 25.1838 30.5846 25.0641H30.83V25.0043H43.5296ZM30.3085 45.5855C30.4107 45.5256 30.4925 45.4558 30.5539 45.3761L43.3762 48.3376L43.1615 51L34.603 50.3718L34.5724 50.5812C34.5315 50.661 34.4906 50.7009 34.4497 50.7009L33.6214 50.6111L30.6459 48.188L30.6766 47.7094L30.2165 47.4402C30.2574 47.3803 30.2778 47.3405 30.2778 47.3205C30.5232 47.3006 30.6459 47.2806 30.6459 47.2607V47.1709C30.5028 47.151 30.4107 47.0613 30.3698 46.9017C30.4312 46.9017 30.4721 46.8319 30.4925 46.6923C30.4925 46.5328 30.5948 46.4231 30.7993 46.3632V46.1239L30.6152 46.0641V46.1538H30.6766V46.2735L30.4005 46.1538V46.0043C30.4823 46.0043 30.605 45.9843 30.7686 45.9444L30.5846 45.765L30.83 45.735C30.83 45.6952 30.7891 45.6752 30.7073 45.6752L30.3085 45.6453V45.5855ZM41.3209 37.5385V32.9615C41.3414 31.5057 41.1369 30.5085 40.7074 29.9701C40.2371 29.3718 39.7156 28.963 39.143 28.7436C38.5704 28.5043 37.9058 28.3846 37.1491 28.3846C36.965 28.3846 36.7912 28.3946 36.6276 28.4145C36.4845 28.3946 36.3413 28.3846 36.1982 28.3846C35.0325 28.3846 34.1225 28.5641 33.468 28.9231C32.8341 29.2821 32.3637 29.8105 32.057 30.5085C31.7502 31.2066 31.5662 32.0741 31.5048 33.1111V40.3504C31.5662 41.3875 31.7502 42.255 32.057 42.953C32.3637 43.651 32.8341 44.1795 33.468 44.5385C34.1225 44.8974 35.0325 45.0769 36.1982 45.0769C36.3413 45.0769 36.4845 45.067 36.6276 45.047C36.8117 45.067 36.9855 45.0769 37.1491 45.0769C37.9058 45.0769 38.6113 44.9672 39.2657 44.7479C39.9201 44.5085 40.462 44.0299 40.8915 43.312C41.3414 42.5741 41.4948 40.6496 41.3516 37.5385H41.3209ZM41.505 24.1368C41.0551 23.8376 40.8301 23.4587 40.8301 23H40.6768V24.4658L41.505 24.1368ZM42.8854 30.5385C42.7013 30.2194 42.5377 30.0598 42.3946 30.0598H42.2412C42.2412 30.0997 42.2923 30.3091 42.3946 30.688H42.548L42.8854 30.5385ZM49.0512 31.6453C48.8262 31.6453 48.7137 31.745 48.7137 31.9444V32.1239C48.8978 32.1239 49.0103 32.0142 49.0512 31.7949V31.6453ZM46.8425 29.0128C46.6585 28.6937 46.4949 28.5342 46.3517 28.5342V29.1624H46.5051L46.8425 29.0128ZM41.0142 28.1453L40.1553 28.4744L40.5234 29.1026C40.8506 28.963 41.0142 28.8034 41.0142 28.6239V28.1453ZM45.3088 26.2308C44.9815 26.3704 44.8179 26.5299 44.8179 26.7094V27.0385H45.3088V26.2308ZM42.7013 27.6966L42.5173 26.8889H42.1799L42.3639 27.2179V28.0556C42.2208 28.0556 42.0367 28.1154 41.8118 28.235C41.9549 28.4145 42.0265 28.6239 42.0265 28.8632H42.3639L42.7013 27.6966Z" fill="#8654CC"/>
<path d="M22.4968 31.4537C22.5385 30.4169 22.7052 29.5952 22.9969 28.9887C23.3094 28.3627 24.0075 28.0301 25.091 27.991C26.1745 27.9518 26.8204 28.216 27.0288 28.7833C27.258 29.3311 27.4038 30.1234 27.4664 31.1603C27.5497 32.1971 27.5914 33.4492 27.5914 34.9165C27.5914 36.3642 27.5497 37.5967 27.4664 38.614C27.4038 39.2987 27.2476 40.0226 26.9975 40.7856C26.7683 41.529 26.0911 41.9007 24.966 41.9007C23.8616 41.9007 23.1844 41.529 22.9344 40.7856C22.6843 40.0226 22.5385 39.2987 22.4968 38.614C22.4135 37.5967 22.3718 36.3642 22.3718 34.9165C22.3718 33.4492 22.4135 32.295 22.4968 31.4537ZM22.1217 27.14V25.9074H19.7464V49.4424H22.4343V43.0158C22.726 43.7201 23.5595 44.1603 24.9347 44.3363C26.1849 44.3363 27.1538 44.1407 27.8414 43.7494C28.5499 43.3582 29.0708 42.7713 29.4042 41.9887C29.7376 41.1866 29.9355 40.1986 29.998 39.0248C30.0605 37.8901 30.0918 36.55 30.0918 35.0045C30.0918 33.4394 30.0605 32.0798 29.998 30.9255C29.9355 29.7517 29.7376 28.7735 29.4042 27.991C29.0708 27.2084 28.5499 26.6215 27.8414 26.2302C27.1538 25.8194 26.2162 25.6825 25.0285 25.8194C23.8408 25.9564 22.8719 26.3965 22.1217 27.14ZM31.0919 50H18.1211V24H31.0919V50Z" fill="#8654CC"/>
<path d="M55.3763 47.0124L51.322 48.5702L54.5416 49.2893L57.0458 47.7314L60.0269 43.657L56.8073 42.0992L55.3763 47.0124Z" fill="#8654CC"/>
<path d="M47.8639 46.1736H50.2488L49.4141 47.0124L48.4602 47.3719V47.7314L47.387 47.3719L47.8639 46.1736Z" fill="#8654CC"/>
<path d="M56.4495 38.624L56.8073 39.8223L57.2842 39.4628V37.905L56.4495 38.624Z" fill="#8654CC"/>
<path d="M17.8144 56L22.2264 53.843L22.7034 52.5248L14.714 55.1612L17.8144 56Z" fill="#8654CC"/>
<path d="M13.8793 50.7273L15.191 52.2851L16.145 51.2066H15.5488V50.4876L13.8793 50.7273Z" fill="#8654CC"/>
<path d="M11.1367 28.438L13.5216 34.7893L14.2371 34.1901L12.5676 27L11.1367 28.438Z" fill="#8654CC"/>
</svg>
