<svg width="31" height="32" viewBox="0 0 31 32" fill="none" xmlns="http://www.w3.org/2000/svg">
<circle cx="15.5015" cy="16" r="15.5" fill="#C63333"/>
<path d="M8.72874 10.9878L9.65965 10L21.8196 23.0044L20.896 24L18.656 21.6044C17.8196 21.9 16.9324 22.0556 16.0015 22.0556C12.3651 22.0556 9.25965 19.6367 8.00146 16.2222C8.50328 14.8533 9.30328 13.6478 10.3215 12.6911L8.72874 10.9878ZM16.0015 13.8889C16.5801 13.8889 17.1351 14.1347 17.5442 14.5723C17.9534 15.0099 18.1833 15.6034 18.1833 16.2222C18.1837 16.4871 18.1418 16.7501 18.0596 17L15.2742 14.0211C15.5078 13.9332 15.7538 13.8885 16.0015 13.8889ZM16.0015 10.3889C19.6378 10.3889 22.7433 12.8078 24.0015 16.2222C23.4079 17.8347 22.3992 19.2343 21.0924 20.2589L20.0596 19.1467C21.0654 18.4026 21.8765 17.3959 22.416 16.2222C21.8281 14.9388 20.9152 13.8576 19.7813 13.1014C18.6474 12.3452 17.3378 11.9444 16.0015 11.9444C15.2087 11.9444 14.4306 12.0844 13.7033 12.3333L12.5833 11.1433C13.6306 10.6611 14.7869 10.3889 16.0015 10.3889ZM9.58692 16.2222C10.1749 17.5056 11.0877 18.5868 12.2216 19.3431C13.3556 20.0993 14.6651 20.5001 16.0015 20.5C16.5033 20.5 16.9978 20.4456 17.456 20.3367L15.7978 18.5556C15.2918 18.4975 14.8195 18.256 14.4596 17.8711C14.0997 17.4862 13.8739 16.9812 13.8196 16.44L11.3469 13.7878C10.6269 14.4489 10.0233 15.2733 9.58692 16.2222Z" fill="#F1F1F1"/>
</svg>
