<svg width="31" height="32" viewBox="0 0 31 32" fill="none" xmlns="http://www.w3.org/2000/svg">
<circle cx="15.5" cy="16" r="15.5" fill="#8654CC"/>
<path d="M8.72727 10.9878L9.65818 10L21.8182 23.0044L20.8945 24L18.6545 21.6044C17.8182 21.9 16.9309 22.0556 16 22.0556C12.3636 22.0556 9.25818 19.6367 8 16.2222C8.50182 14.8533 9.30182 13.6478 10.32 12.6911L8.72727 10.9878ZM16 13.8889C16.5787 13.8889 17.1336 14.1347 17.5428 14.5723C17.9519 15.0099 18.1818 15.6034 18.1818 16.2222C18.1822 16.4871 18.1404 16.7501 18.0582 17L15.2727 14.0211C15.5064 13.9332 15.7523 13.8885 16 13.8889ZM16 10.3889C19.6364 10.3889 22.7418 12.8078 24 16.2222C23.4064 17.8347 22.3978 19.2343 21.0909 20.2589L20.0582 19.1467C21.0639 18.4026 21.8751 17.3959 22.4145 16.2222C21.8266 14.9388 20.9138 13.8576 19.7798 13.1014C18.6459 12.3452 17.3363 11.9444 16 11.9444C15.2073 11.9444 14.4291 12.0844 13.7018 12.3333L12.5818 11.1433C13.6291 10.6611 14.7855 10.3889 16 10.3889ZM9.58545 16.2222C10.1734 17.5056 11.0862 18.5868 12.2202 19.3431C13.3541 20.0993 14.6637 20.5001 16 20.5C16.5018 20.5 16.9964 20.4456 17.4545 20.3367L15.7964 18.5556C15.2903 18.4975 14.8181 18.256 14.4582 17.8711C14.0983 17.4862 13.8724 16.9812 13.8182 16.44L11.3455 13.7878C10.6255 14.4489 10.0218 15.2733 9.58545 16.2222Z" fill="#F1F1F1"/>
</svg>
