<svg width="54" height="47" viewBox="0 0 54 47" fill="none" xmlns="http://www.w3.org/2000/svg">
<path fill-rule="evenodd" clip-rule="evenodd" d="M48.4748 1.70739C45.3715 3.77585 43.8341 4.99429 40.0058 8.42282C36.7284 11.3414 36.7865 11.313 35.8585 10.378C33.9443 8.36617 26.9254 6.5527 24.9242 7.60111C23.9669 8.08279 24.0832 9.04619 25.0982 9.04619C27.8534 9.07453 30.4058 10.3213 32.5811 12.1064C34.5242 13.7215 34.5242 13.6365 31.769 16.2999C28.8106 19.1334 24.6052 23.8087 22.2558 26.8405L20.4576 29.164L18.9494 26.9823C15.3821 21.7685 11.5247 19.1902 9.14643 20.4084C8.27631 20.8619 8.42134 21.1453 11.0316 23.8372C13.3229 26.189 15.7011 29.5325 17.3833 32.7909C18.7464 35.4263 22.1109 35.4263 24.4021 31.6294C26.0554 28.8807 30.3187 23.6389 33.8281 20.0685L36.9606 16.8666L37.7145 18.5101C44.4434 33.2161 28.0275 50.2453 14.222 42.8783C0.126413 35.3413 3.31676 11.1713 18.6886 9.01785C21.7049 8.59284 21.7627 7.60108 18.7754 7.23275C11.0605 6.21267 1.19955 15.1381 0.15542 24.0355C-1.81681 41.0083 15.3241 52.0589 32.088 44.6634C42.2681 40.1864 47.0245 24.0921 40.7308 15.5916C40.2669 14.9683 39.8898 14.3733 39.8898 14.2315C39.8898 13.6365 45.0814 9.10284 50.592 4.96592C56.7986 0.290642 53.5793 -1.69283 48.4748 1.70739Z" fill="#8654CC"/>
</svg>
