<svg width="714" height="740" viewBox="0 0 714 740" fill="none" xmlns="http://www.w3.org/2000/svg">
<path fill-rule="evenodd" clip-rule="evenodd" d="M14 154.65C13.6746 155.524 12.9781 156.566 11.9105 157.777V158.822C11.9105 159.518 12.4864 159.867 13.6381 159.867L13.0623 164.569V165.091L13.6381 166.658C11.7186 167.355 10.7588 167.877 10.7588 168.226V168.748C11.9105 168.748 12.2944 207.931 11.9105 286.297C11.5266 364.663 10.7588 404.368 9.60702 405.413C10.3749 405.413 10.9507 405.936 11.3346 406.98L10.7588 410.115L11.3346 411.16L10.7588 412.727L11.3346 416.384C11.3346 417.778 10.5668 419.693 9.03113 422.131L10.7588 424.743L9.60702 426.311C9.60702 427.704 10.3748 428.401 11.9105 428.401C11.9105 430.142 10.7588 432.232 8.45526 434.67C8.45526 436.411 9.22309 438.849 10.7588 441.984L9.60702 445.641V446.163C9.60702 448.544 11.0713 450.759 14 452.807V518.22L10.3658 519.718L10.9416 524.266L2.3035 526.824C3.07133 527.392 3.45526 527.771 3.45526 527.961C8.06227 528.15 10.3658 528.34 10.3658 528.529V529.382C7.67835 529.572 5.95072 530.424 5.18289 531.94C6.33464 531.94 7.10247 532.603 7.48638 533.93C7.48638 535.446 9.40598 536.488 13.2452 537.056V539.33L9.7899 539.899V539.046H10.9416V537.909L5.75876 539.046V540.467C7.29442 540.467 9.59793 540.657 12.6693 541.036L9.21401 542.741L13.821 543.025C13.821 543.404 13.0532 543.594 11.5175 543.594L4.03113 543.878V544.447C5.95071 545.015 7.48639 545.678 8.63814 546.436L14 545.809V550.521L8.06227 550.984C8.44619 551.742 8.63814 552.5 8.63814 553.258C9.02206 553.258 9.98186 553.163 11.5175 552.974C13.0532 552.974 13.821 553.163 13.821 553.542V554.11C11.5175 554.11 9.59794 554.395 8.06227 554.963L4.60702 554.395C4.60702 555.342 4.99092 556.005 5.75876 556.384C5.37484 558.469 4.22309 559.511 2.3035 559.511C1.91958 560.648 1.15175 561.216 0 561.216V561.501C1.91959 562.069 3.07134 562.353 3.45526 562.353V564.059C6.5266 564.059 8.06227 564.248 8.06227 564.627V564.911C4.60702 565.669 2.30351 566.048 1.15176 566.048V566.617C1.15176 566.996 3.64722 567.659 8.63814 568.606L6.91051 574.007C8.44618 574.007 9.21401 574.196 9.21401 574.575V576.565C9.21401 577.133 8.44618 577.891 6.91051 578.839V579.407C6.91051 579.786 7.48639 579.976 8.63814 579.976L8.06227 582.534V582.818L8.63814 583.671C6.71856 584.05 5.75876 584.334 5.75876 584.524V584.808C6.91051 584.808 7.29443 606.125 6.91051 648.761C6.5266 691.396 5.75877 712.998 4.60702 713.566C5.37485 713.566 5.95073 713.85 6.33464 714.419L5.75876 716.124L6.33464 716.693L5.75876 717.545L6.33464 719.535C6.33464 720.293 5.5668 721.335 4.03113 722.662L5.75876 724.083L4.60702 724.936C4.60702 725.694 5.37484 726.073 6.91051 726.073C6.91051 727.02 5.75876 728.157 3.45526 729.483C3.45526 730.431 4.22309 731.757 5.75876 733.463L4.60702 735.452V735.736C4.60702 737.063 6.14267 738.295 9.21401 739.432H13.821V740H14H252.234H714V3.05176e-05L250.323 0L14 3.05176e-05V58.5252L7.3035 62.1703C8.07133 63.2152 8.45526 63.9118 8.45526 64.2601C11.0142 64.4535 12.8624 64.647 14 64.8405V67.1815C12.084 67.8283 10.8117 69.2925 10.1829 71.5742C11.3346 71.5742 12.1025 72.7932 12.4864 75.2313C12.4864 76.6598 12.9909 77.8594 14 78.8302V83.3284L10.7588 84.6353V87.2474C11.6056 87.2474 12.6861 87.3533 14 87.5652V93.1699L9.03113 93.5167V94.5616C10.9507 95.6065 12.4864 96.8255 13.6381 98.2187L14 98.1409V106.443L13.0623 106.578C13.4462 107.971 13.6381 109.364 13.6381 110.757C13.7275 110.757 13.8482 110.748 14 110.729V113.342C13.673 113.506 13.3604 113.689 13.0623 113.892L9.60702 112.847C9.60702 114.588 9.99092 115.807 10.7588 116.504C10.3748 120.335 9.22309 122.251 7.3035 122.251C6.91958 124.341 6.15175 125.386 5 125.386V125.908C6.91959 126.953 8.07134 127.475 8.45526 127.475V130.61C11.5266 130.61 13.0623 130.958 13.0623 131.655V132.177C9.60701 133.57 7.30351 134.267 6.15176 134.267V135.312C6.15176 136.008 8.64722 137.227 13.6381 138.969L11.9105 148.895C12.9781 148.895 13.6746 149.064 14 149.4V154.65Z" fill="#F1F1F1"/>
</svg>
