<svg width="31" height="32" viewBox="0 0 31 32" fill="none" xmlns="http://www.w3.org/2000/svg">
<circle cx="15.5015" cy="16" r="15.5" fill="#8458CB"/>
<path d="M9.46471 15.17C9.29564 15.0074 9.20065 14.7869 9.20065 14.557C9.20065 14.3271 9.29564 14.1066 9.46471 13.944C9.63379 13.7814 9.86311 13.6901 10.1022 13.6901C10.3413 13.6901 10.5706 13.7814 10.7397 13.944L14.6015 17.6587V9.36538C14.6015 9.13587 14.6963 8.91576 14.8651 8.75347C15.0339 8.59117 15.2628 8.5 15.5015 8.5C15.7402 8.5 15.9691 8.59117 16.1379 8.75347C16.3066 8.91576 16.4015 9.13587 16.4015 9.36538V17.6587L20.2647 13.9433C20.4338 13.7807 20.6631 13.6894 20.9022 13.6894C21.1413 13.6894 21.3706 13.7807 21.5397 13.9433C21.7088 14.1058 21.8038 14.3263 21.8038 14.5563C21.8038 14.7862 21.7088 15.0067 21.5397 15.1692L16.1397 20.3615C16.0561 20.4422 15.9567 20.5062 15.8474 20.5499C15.738 20.5936 15.6207 20.6161 15.5022 20.6161C15.3838 20.6161 15.2665 20.5936 15.1571 20.5499C15.0477 20.5062 14.9483 20.4422 14.8647 20.3615L9.46471 15.17ZM22.1015 21.7692H8.90146C8.66277 21.7692 8.43385 21.8604 8.26507 22.0227C8.09629 22.185 8.00146 22.4051 8.00146 22.6346C8.00146 22.8641 8.09629 23.0842 8.26507 23.2465C8.43385 23.4088 8.66277 23.5 8.90146 23.5H22.1015C22.3402 23.5 22.5691 23.4088 22.7379 23.2465C22.9066 23.0842 23.0015 22.8641 23.0015 22.6346C23.0015 22.4051 22.9066 22.185 22.7379 22.0227C22.5691 21.8604 22.3402 21.7692 22.1015 21.7692Z" fill="white"/>
</svg>
