<svg width="153" height="52" viewBox="0 0 153 52" fill="none" xmlns="http://www.w3.org/2000/svg">
<path d="M152.088 21.4254C152.018 20.9604 151.961 20.4696 151.837 20.0044C151.765 19.7135 151.664 19.4306 151.524 19.1707C151.288 18.7374 150.944 18.358 150.397 18.099C150.49 17.673 150.267 17.5297 149.955 17.4642C149.912 17.4597 149.864 17.4492 149.817 17.4388C149.726 17.3257 149.634 17.218 149.543 17.105C149.556 16.7794 149.528 16.4769 149.348 16.2837C149.241 16.1689 149.076 16.0916 148.841 16.0669C148.863 15.7532 148.776 15.548 148.617 15.4115C148.498 15.3064 148.337 15.2404 148.158 15.1944C148.1 15.1774 148.037 15.1653 147.973 15.1531C147.542 14.7211 147.105 14.2938 146.674 13.8618C146.674 13.8127 146.667 13.7739 146.655 13.7345C146.618 13.627 146.527 13.563 146.387 13.5592C145.585 13.0009 144.771 12.4578 143.988 11.8743C138.508 7.82284 131.794 6.97006 125.595 4.81506C121.83 3.50417 117.777 3.1871 113.828 2.54328C108.581 1.68674 103.249 1.80173 97.9661 1.33368C95.8373 1.14262 93.6992 0.988714 91.5672 0.982534C90.4524 0.979767 89.3119 0.707361 88.2534 0.890276C85.9428 1.29568 83.6275 1.59163 81.2965 1.72796C80.5179 1.77142 79.741 1.79872 78.961 1.8039C78.8951 1.81331 78.8238 1.82216 78.7579 1.83157C78.6919 1.84098 78.6206 1.84983 78.5547 1.85924C77.698 1.87271 76.8439 1.91368 75.9862 1.93792C75.1284 1.96216 74.2777 1.9708 73.4295 1.90345C68.2896 1.5212 63.3214 2.69865 58.3289 3.54124C55.9262 3.94785 53.5456 4.60738 51.1647 5.21785C48.5559 5.88607 45.8397 6.03094 43.2176 6.77403C39.3619 7.87229 35.4801 8.85886 31.5377 9.64841C27.7279 10.4137 23.9607 11.4941 20.2352 12.6932C16.8005 13.803 13.6912 15.5245 10.6073 17.314C8.81485 18.3513 6.9422 19.2766 5.56511 20.9459C3.86545 23.0062 2.79145 25.4482 1.3566 27.6671C0.381139 29.1716 0.58364 30.4894 1.3527 32.0301C3.10589 35.5374 6.32034 36.9865 9.60099 38.4753C11.2231 39.2124 12.9697 39.6411 14.5244 40.5562C16.6654 41.8163 18.7818 43.1555 21.0268 44.1977C25.8321 46.4241 30.8922 48.0291 36.0268 49.2334C38.8317 49.8932 41.768 50.229 44.6706 50.4742C49.1291 50.8502 53.5615 51.681 58.0665 51.4082C58.3679 51.7341 58.6438 51.7358 58.8854 51.3418C59.5467 51.0245 60.2194 51.4221 60.9053 51.2817C64.4407 50.5529 68.0085 50.9061 71.5671 50.9859C73.5596 51.0319 75.5601 51.362 77.5454 51.2711C81.2935 51.093 85.0392 50.784 88.7725 50.3865C93.9069 49.8421 99.0369 49.2373 104.05 47.8902C104.177 48.0725 104.243 48.014 104.289 47.8336C104.737 47.7391 105.191 47.6452 105.639 47.5507C105.743 47.6923 105.828 47.6631 105.902 47.5184C106.398 47.3907 106.882 47.2128 107.381 47.1508C110.522 46.7728 113.673 46.5048 116.803 46.0329C118.766 45.7381 120.689 45.1612 122.631 44.7062C122.788 44.8099 122.925 44.846 123.047 44.8153C123.108 44.7999 123.166 44.7679 123.214 44.7185C123.239 44.6938 123.264 44.6637 123.289 44.6283C123.314 44.5928 123.334 44.5568 123.355 44.5099C123.558 44.4386 123.765 44.3732 123.967 44.3019C124.014 44.3231 124.056 44.333 124.094 44.3369C124.206 44.3488 124.289 44.2758 124.337 44.1337C124.509 44.0919 124.675 44.0549 124.848 44.0131C124.858 44.0142 124.864 44.0094 124.875 44.0051C124.944 44.0178 125.003 44.024 125.063 44.0248C125.236 44.0213 125.364 43.9366 125.401 43.6953C125.838 43.4962 126.281 43.2976 126.72 43.0931C126.802 43.129 126.878 43.1315 126.946 43.1059C126.979 43.0932 127.008 43.0744 127.038 43.0503C127.068 43.0262 127.092 42.9961 127.118 42.9552C127.137 42.93 127.161 42.9107 127.184 42.9022C127.206 42.8936 127.233 42.8911 127.265 42.8998C127.489 42.9779 127.673 42.9809 127.822 42.9039C127.896 42.8681 127.957 42.8091 128.013 42.7333C128.07 42.6576 128.112 42.564 128.146 42.4477C128.642 42.2057 129.135 41.9523 129.633 41.6942C131.11 40.9288 132.583 40.1413 134.132 39.574C138.65 37.9407 142.823 35.7808 146.364 32.4759C147.075 32.2947 147.541 31.886 147.872 31.3544C148.074 31.0378 148.225 30.6778 148.362 30.3C148.796 30.2367 149.05 30.0346 149.214 29.7631C149.379 29.4862 149.458 29.1459 149.532 28.7996C149.539 28.7295 149.571 28.6839 149.634 28.6577C150.068 28.6925 150.193 28.3298 150.379 28.0551C151.748 26.0527 152.473 23.8409 152.11 21.4222L152.088 21.4254ZM3.31689 31.2124C3.17425 30.7671 3.04489 30.2469 3.28462 29.8199C5.12044 26.5156 6.69291 22.9874 9.93318 20.7404C12.619 18.8764 15.5573 17.442 18.4765 15.9839C22.5491 13.9551 26.9812 13.1407 31.3443 12.1067C31.3508 12.2 31.3572 12.2933 31.3636 12.3866C30.3349 12.8014 29.3073 13.2054 28.2743 13.6089C25.1808 14.82 22.0778 16.0192 19.0535 17.3955C15.0055 19.2416 11.7168 22.1046 9.28246 25.9017C8.79656 26.6623 8.24981 27.3838 7.72869 28.1189C5.59657 31.1524 6.62368 33.3795 8.60446 35.9573C8.73316 36.1234 8.87961 36.275 8.95924 36.4958C6.38563 35.4899 4.21041 34.041 3.31689 31.2124ZM147.892 25.8162C146.213 28.9682 143.866 31.5162 141.041 33.5235C139.075 34.9239 136.766 35.9287 134.494 36.7904C131.372 37.9711 128.399 39.4727 125.401 40.9063C121.65 42.7074 117.731 43.7391 113.619 44.1403C108.008 44.6837 102.508 45.827 96.9917 46.9632C92.4164 47.9041 87.7226 48.1189 83.0835 48.6882C77.8248 49.3339 72.59 48.8763 67.3415 48.755C64.3881 48.6843 61.4587 49.1064 58.5199 49.3096C56.0939 49.474 53.6652 49.4585 51.2431 49.2257C47.5885 48.8742 43.9206 48.5977 40.2745 48.1654C37.6819 47.8548 35.1038 47.3551 32.6068 46.5479C29.6696 45.6018 26.7466 44.6245 23.81 43.6731C23.3544 43.5271 22.922 43.3673 22.5541 43.0562C22.3735 42.9719 22.1929 42.8875 21.9766 42.7831C22.0169 42.7601 22.0566 42.7425 22.0904 42.7297C22.3551 42.6322 22.5672 42.7253 22.7853 42.8136C25.9974 43.3582 29.1747 44.1824 32.4396 44.3785C32.9077 44.4059 33.3715 44.422 33.8423 44.4224C34.2811 44.4195 35.0345 44.6676 35.0745 44.1325C35.1216 43.4783 34.4077 43.1636 33.7799 43.1629C31.7983 43.1671 29.8488 42.9186 27.9046 42.5672C23.6444 41.7981 19.3972 40.905 15.4384 39.1215C12.746 37.907 10.4777 36.0562 9.19957 33.2308C8.78693 32.3158 8.78483 31.4603 9.22631 30.5044C12.465 23.5342 18.0812 19.3851 25.0314 16.7055C31.361 14.2657 37.6368 11.6677 44.205 9.94477C48.8971 8.71651 53.6918 7.90216 58.3761 6.64583C66.4129 4.4944 74.6109 3.95059 82.8522 3.61288C86.2331 3.47796 89.582 2.66962 92.985 2.9946C100.797 3.75035 108.62 4.36006 116.384 5.67729C120.591 6.38639 124.832 7.07731 129.087 7.59526C132.432 8.00677 135.733 9.19271 138.835 10.7335C141.742 12.1722 144.336 13.97 146.585 16.3636C148.965 18.8964 149.515 22.7293 147.876 25.8092L147.892 25.8162Z" fill="#C3F598"/>
</svg>
